<svg width="65" height="70" xmlns="http://www.w3.org/2000/svg" xmlns:xlink="http://www.w3.org/1999/xlink" xmlns:svgjs="http://svgjs.com/svgjs" viewBox="0.507 0 63.986 70" fill="#fff"><svg xmlns="http://www.w3.org/2000/svg" width="65" height="70" viewBox="2.032 2.011 63.053 68.978"><path paint-order="stroke fill markers" fill-rule="evenodd" d="M64.642 7.282c-.72 1.565-1.59 3.639-2.61 6.22a808.404 808.404 0 0 0-3.248 8.331 527.643 527.643 0 0 0-3.374 9.058c-1.115 3.064-2.121 5.83-3.021 8.288-.904 2.465-1.923 5.259-3.066 8.382-.483 1.081-1.016 2.056-1.62 2.926-.602.872-1.503 1.31-2.708 1.31h-31.17c-1.202 0-2.15-.451-2.839-1.354A8.684 8.684 0 0 1 9.5 47.561L2.202 20.258c-.306-1.2-.198-2.223.315-3.062.508-.843 1.84-1.262 4.006-1.262h45.953l5.411-11.711c.537-1.142 1.293-1.834 2.252-2.077.962-.239 1.863-.161 2.697.229.845.39 1.49 1.021 1.943 1.89.448.872.404 1.878-.137 3.017zm-40.543 57.22c0 1.802-.638 3.33-1.9 4.592-1.262 1.26-2.785 1.895-4.59 1.895-1.863 0-3.423-.634-4.685-1.895-1.261-1.262-1.891-2.79-1.891-4.593 0-1.801.63-3.347 1.89-4.643 1.263-1.289 2.823-1.936 4.687-1.936 1.804 0 3.327.647 4.589 1.936 1.262 1.296 1.9 2.842 1.9 4.643zm22.613 0c0 1.802-.629 3.33-1.89 4.592-1.263 1.26-2.795 1.895-4.597 1.895-1.863 0-3.428-.634-4.686-1.895-1.262-1.262-1.894-2.79-1.894-4.593 0-1.801.632-3.347 1.894-4.643 1.258-1.289 2.823-1.936 4.686-1.936 1.802 0 3.334.647 4.597 1.936 1.261 1.296 1.89 2.842 1.89 4.643z"/></svg></svg>