<svg width="73" height="73" xmlns="http://www.w3.org/2000/svg" xmlns:xlink="http://www.w3.org/1999/xlink" xmlns:svgjs="http://svgjs.com/svgjs" viewBox="0.034 0 72.931 73" fill="#fff"><svg xmlns="http://www.w3.org/2000/svg" width="73" height="73" viewBox="2 2 72 72.067"><path paint-order="stroke fill markers" fill-rule="evenodd" d="M72.412 70.372l-2.108 2.108a5.42 5.42 0 0 1-7.664 0L49.38 59.22a30.816 30.816 0 0 1-16.416 4.708C15.863 63.928 2 50.065 2 32.964S15.863 2 32.964 2s30.964 13.863 30.964 30.964a30.817 30.817 0 0 1-4.76 16.5l13.244 13.244a5.42 5.42 0 0 1 0 7.664zM32.964 10.57c-12.368 0-22.395 10.027-22.395 22.395s10.027 22.395 22.395 22.395 22.395-10.027 22.395-22.395-10.027-22.395-22.395-22.395z"/></svg></svg>