<svg width="89" height="89" xmlns="http://www.w3.org/2000/svg" xmlns:xlink="http://www.w3.org/1999/xlink" xmlns:svgjs="http://svgjs.com/svgjs" fill="#fff"><svg xmlns="http://www.w3.org/2000/svg" width="89" height="89" viewBox="1.019 1.019 87.963 87.963"><path paint-order="stroke fill markers" fill-rule="evenodd" d="M45.006 1.019C20.724 1.019 1.02 20.724 1.02 45.005c0 24.271 19.705 43.976 43.987 43.976 24.27 0 43.975-19.705 43.975-43.976 0-24.281-19.705-43.986-43.975-43.986zm0 4.475c15.615 0 29.11 9.106 35.52 22.264v.086c.037.463.087.935.074 1.437.325.262.724.71 1.123 1.197.898 2.27 1.521 4.652 1.995 7.095-.374.35-.873.599-1.683.647-4.079-3.215-.088 3.531 2.157 2.309.162 1.459.325 2.97.325 4.476 0 9.78-3.617 18.646-9.504 25.542 0-.248.062-.558.162-1.047 2.744-3.33 2.233-9.9-3.355-9.179-2.906 2.283-6.934 5.213-10.463 1.845-3.68-3.316-1.97-8.802.087-12.531 2.058-2.995 2.731-7.424 6.385-8.944 3.605.825 8.02.575 9.342-3.827 1.122-1.974.486-2.635-.562-3.12-.112-.037-.174-.037-.236-.073-1.198-.502-2.72-.901-2.882-2.635 1.073-1.844-1.197-5.621-2.07-2.243 1.858 2.106 2.282 8.431-2.157 6.075 1.583 2.532-5.725.91-4.315 4.463 1.16 3.867-6.598 6.05-4.39 1.125 1.247-3.631-.574-9.081 2.643-11.415-.037-.11.287-.597.15-.086.112-.073.2-.176.324-.237 2.806-1.935-3.567-7.745-3.193-4.153 2.744 1.434 1.235 4.33-1.434 2.881-2.806-1.384-3.828-9.078.075-8.541 2.943.386.137-2.72-1.197-4.231-.137.7-.35-.138-.237-.236-.062-.075-.187-.185-.25-.25.375-4.626-7.333-.575-8.617-4.701C43.97 7.081 38.42 6.944 33.02 7.331c2.07-.661 4.19-1.048 6.386-1.361l.636-.075a24.87 24.87 0 0 0 1.758-.237c1.048-.087 2.12-.164 3.193-.164h.012zM28.481 10.76c5.513 1.833-2.793 7.67 1.36 9.977.424-.012.76.1 1.11.237.112-.112.15-.051.162.086 1.858.862 2.257 3.519-.798 3.344-4.228-1.197-5.9 7.83-1.759 6.71 1.522-4.253 6.111-2.457 6.947 1.272 2.47 3.84-2.582 3.805-4.315 5.436 1.746 3.146-3.068 1.486-4.864 3.034-3.442.759-4.503 5.986-7.508 6.145-.125-5.472-9.242-3.626-7.745 1.349 1.945 1.521 4.54 3.093 4.153 6.31-.15 6.785 8.194 4.554 11.898 8.146 4.552 1.995 7.47 6.098 11.486 8.78 3.48-1.185 9.915 2.12 6.473 6.296-2.058 1.522-4.452 2.857-6.947 3.754v.086c-1.509.536-3.13.914-4.714 1.039a39.235 39.235 0 0 1-8.693-3.918c-.012-.025.013-.052 0-.073-1.234-3.592-4.54-5.814-6.784-8.707-1.185-1.185-1.347-2.52-1.285-3.905.025-.01-.025-.074 0-.086.15-2.295.96-4.69-.71-6.785-2.607-4.353-5.887-8.342-7.584-13.17-.187-4.987-.46-9.776 1.198-14.53 3.692-7.582 12.896-15.676 18.92-20.827zm11.736 6.15c.15-.012.287.036.474.073.96 0 .636 1.073 0 1.36-2.27 2.133-2.831-.986-.96-1.36.137-.025.324-.073.486-.073zm3.106.71c1.633-.199 3.28.46 3.753 2.394 1.148 4.577-3.417 7.534-5.113 11.264-4.203-1.176.237-5.814-1.596-8.071-2.52-2.607.224-5.237 2.956-5.588zm-8.22 4.552c2.657-.163 2.146 5.712-.074 6.622-1.946-1.782.611-4.404-.487-6.46.212-.063.387-.15.562-.162zm22.911 9.416c.873-.049 2.819.848 2.632 2.084-.836 1.408-3.193 1.283-2.32-.798-.948-.887-.836-1.249-.312-1.286zM35.03 37.662c1.035-.189 3.268.597 1.197 1.832.661-.699-.486-.437-.648-.4-1.335-.922-1.185-1.32-.549-1.432zm-8.38 3.266c.286.039-.1.424-.488.326h-.074c-.062-.027-.113-.113-.162-.164.374-.15.598-.174.723-.162zm-8.145 11.101c.175-.051.374-.026.636 0 .212.022.5.086.724.16 0 .038-.013.013 0 .076.86.3 1.658.974 1.271 2.07-.66.262-1.359-.212-1.758-.71-1.434-.886-1.41-1.446-.873-1.596z"/></svg></svg>