<svg width="19" height="19" xmlns="http://www.w3.org/2000/svg" xmlns:xlink="http://www.w3.org/1999/xlink" xmlns:svgjs="http://svgjs.com/svgjs" fill="#e67624"><svg xmlns="http://www.w3.org/2000/svg" width="19" height="19" viewBox="1.999 1.999 18.003 18.003"><path paint-order="stroke fill markers" fill-rule="evenodd" d="M11 1.999a9.002 9.002 0 1 0 0 18.003 9.002 9.002 0 0 0 0-18.003zm4.66 8.32l-4.08 4.08c-.784.785-1.855.983-2.394.444-.007-.007-.011-.017-.018-.024a1.203 1.203 0 0 1-.346-.23L6.354 12.12a1.213 1.213 0 1 1 1.717-1.716l1.8 1.8 3.838-3.837c.784-.784 1.855-.982 2.394-.443.54.539.34 1.611-.443 2.394z"/></svg></svg>